<svg width="80" height="80" viewBox="0 0 80 80" fill="none" xmlns="http://www.w3.org/2000/svg">
<g clip-path="url(#clip0_482_9961)">
<path d="M60.9647 8.57454L59.5928 5.059C59.5928 5.059 58.9926 3.42985 58.7353 2.91538C58.5639 2.65814 58.3066 2.31517 58.0494 2.05793C56.6775 0.686012 54.7053 0.0857978 52.9904 0.600267C51.9615 0.943247 50.9326 1.37197 50.9326 1.37197L47.417 2.91538C46.3023 3.42985 45.1019 3.77283 43.9015 4.03006C41.4149 4.54453 38.7568 4.54453 36.2702 4.03006C34.984 3.85857 33.7836 3.42985 32.5831 2.91538L29.2391 1.45772C29.2391 1.45772 27.3527 0.514522 26.6668 0.343033C25.0376 -0.171437 23.1512 0.600267 21.865 1.88644C21.6078 2.14368 21.2648 2.5724 21.1791 2.82963C20.8361 3.42985 20.3216 4.97326 20.3216 4.97326L19.0355 8.57454C18.6067 9.77497 18.0065 10.8897 17.3206 11.9186C18.2638 11.7471 19.3784 11.8328 20.5789 12.3473L25.895 14.6624L30.3538 16.6346L30.5253 16.7203L35.8415 19.0354C38.4995 20.2359 41.5864 20.2359 44.2445 19.0354L49.5606 16.7203L49.7321 16.6346L54.1909 14.6624L59.507 12.3473C60.7075 11.8328 61.8222 11.6614 62.7654 11.9186C61.9936 10.8897 61.3934 9.77497 60.9647 8.57454Z" fill="#C0F8E8"/>
<path d="M71.3402 60.9647L74.8557 59.5928L76.9994 58.7353C77.2566 58.5639 77.5996 58.3066 77.8568 58.0494C79.2287 56.6775 79.7432 54.7911 79.3145 52.9904L78.457 50.9326L76.9136 47.417C76.3992 46.3023 76.0562 45.1019 75.7989 43.9015C75.2845 41.4149 75.2845 38.7568 75.7989 36.2702C76.0562 35.0697 76.3992 33.8693 76.9136 32.6689L78.3713 29.3248L79.486 26.7525C79.7432 25.0376 79.2287 23.237 77.9426 21.9508C77.6853 21.6935 77.5138 21.5221 77.2566 21.3506L74.8557 20.4074L71.3402 19.0355C70.1398 18.6067 69.0251 18.0065 67.9962 17.3206C68.1676 18.2638 68.0819 19.3784 67.5674 20.5789L65.2523 25.895L63.2802 30.3538L63.1944 30.5253L60.8793 35.8415C59.6789 38.4995 59.6789 41.5864 60.8793 44.2445L63.1944 49.5606L63.2802 49.7321L65.2523 54.1909L67.5674 59.507C68.0819 60.7075 68.2534 61.8222 67.9962 62.7654C69.1108 61.9936 70.2255 61.4792 71.3402 60.9647Z" fill="#C0F8E8"/>
<path d="M18.9498 71.4255L20.3217 74.941C20.3217 74.941 20.9219 76.5702 21.1792 77.0846C21.3507 77.3419 21.6079 77.6849 21.8651 77.9421C23.2371 79.314 25.2092 79.9142 26.9241 79.3997C27.953 79.0568 28.982 78.628 28.982 78.628L32.4975 77.0846C33.6122 76.5702 34.8126 76.2272 36.013 75.97C38.4996 75.4555 41.1577 75.4555 43.6443 75.97C44.8448 76.2272 46.0452 76.5702 47.2456 77.0846L50.5897 78.5423C50.5897 78.5423 52.4761 79.4855 53.162 79.657C54.7912 80.1715 56.6776 79.3997 57.9637 78.1136C58.221 77.8563 58.564 77.4276 58.6497 77.1704C58.9927 76.5702 59.5072 75.0268 59.5072 75.0268L60.8791 71.5112C61.3078 70.3108 61.908 69.1961 62.594 68.1672C61.6508 68.3387 60.5361 68.2529 59.3357 67.7384L54.0195 65.3376L49.5607 63.3655L49.3893 63.2797L44.0731 60.9646C41.415 59.7642 38.3282 59.7642 35.6701 60.9646L30.3539 63.2797L30.1824 63.3655L25.7237 65.3376L20.4075 67.6527C19.207 68.1672 18.0924 68.3387 17.1492 68.0814C17.9209 69.1104 18.4353 70.225 18.9498 71.4255Z" fill="#C0F8E8"/>
<path d="M8.48888 18.9498L4.97334 20.3217L2.82972 21.1791C2.57248 21.3506 2.2295 21.6079 1.97227 21.8651C0.600352 23.237 0.0858826 25.1234 0.514607 26.924L1.37206 28.9819L2.91546 32.5832C3.42993 33.6979 3.77291 34.8983 4.03015 36.0987C4.54462 38.5853 4.54462 41.2434 4.03015 43.73C3.77291 44.9305 3.42993 46.1309 2.91546 47.3313L1.4578 50.6754L0.343117 53.2477C0.0858826 54.9626 0.600352 56.7633 1.88653 58.0494C2.14376 58.3067 2.31525 58.4782 2.57248 58.6497L4.97334 59.5928L8.48888 60.879C9.68931 61.3077 10.804 61.908 11.8329 62.5939C11.6614 61.6507 11.7472 60.536 12.2617 59.3356L14.5768 54.0194L16.5489 49.5607L16.6346 49.3892L18.9498 44.073C20.1502 41.4149 20.1502 38.3281 18.9498 35.67L16.6346 30.3538L16.5489 30.1823L14.5768 25.8094L12.2617 20.4932C11.7472 19.2927 11.5757 18.1781 11.8329 17.2349C10.804 17.9208 9.68931 18.521 8.48888 18.9498Z" fill="#C0F8E8"/>
<path d="M32.5831 2.57235L29.0675 1.02894C29.0675 1.02894 27.4384 0.257235 26.9239 0.0857449C26.5809 0 26.1522 0 25.8092 0C23.8371 0 22.0364 0.943194 21.179 2.57235C20.6645 3.60129 20.3215 4.63023 20.3215 4.63023L18.8639 8.23151C18.4352 9.43194 17.8349 10.5466 17.149 11.5756C15.6913 13.7192 13.8907 15.6056 11.6613 17.0632C10.6324 17.7492 9.51768 18.3494 8.31726 18.7781L4.88746 20.1501C4.88746 20.1501 2.91533 20.836 2.31511 21.179C0.771704 22.0364 0 23.8371 0 25.7235C0 26.0665 0.0857449 26.6667 0.17149 26.9239C0.34298 27.5241 1.11468 29.0675 1.11468 29.0675L2.65809 32.4973C3.08682 33.4405 3.4298 34.3837 3.68703 35.4126C3.77278 35.6699 4.11576 35.7556 4.28724 35.5841C4.80171 34.9839 5.57342 34.4695 6.51661 34.1265L11.9185 31.9829L16.463 30.1822L16.6345 30.0965L22.1222 27.9528C24.866 26.8382 27.0096 24.6945 28.1243 21.9507L30.2679 16.463L30.3537 16.2915L32.1543 11.7471L34.298 6.34512C34.6409 5.40193 35.1554 4.63023 35.7556 4.11576C35.9271 3.94427 35.8414 3.60129 35.5841 3.51554C34.4694 3.34405 33.5263 3.00107 32.5831 2.57235Z" fill="#042181"/>
<path d="M77.3417 32.5831L78.8851 29.0675L79.8283 26.9239C79.914 26.5809 79.914 26.2379 79.914 25.8092C79.914 23.8371 78.8851 22.1222 77.3417 21.179L75.2838 20.4073L71.6825 18.8639C70.4821 18.4352 69.3674 17.8349 68.3385 17.149C66.1948 15.6913 64.3085 13.8907 62.8508 11.6613C62.1648 10.6324 61.5646 9.51768 61.1359 8.31726L59.764 4.88746L58.735 2.31511C58.735 2.31511 58.735 2.22937 58.6493 2.22937C57.7918 0.857449 56.1627 0 54.2763 0C53.9333 0 53.6761 0 53.3331 0.0857449L50.9322 1.11468L47.5025 2.65809C46.5593 3.08682 45.6161 3.4298 44.5871 3.68703C44.3299 3.77278 44.2441 4.11576 44.4156 4.28724C45.0158 4.80171 45.5303 5.57342 45.8733 6.51661L48.0169 11.9185L49.8176 16.463L49.9033 16.6345L52.0469 22.1222C53.1616 24.866 55.3052 27.0096 58.0491 28.1243L63.5367 30.2679L63.7082 30.3537L68.2527 32.1543L73.6547 34.298C74.5978 34.6409 75.3695 35.1554 75.884 35.7556C76.0555 35.9271 76.3985 35.8414 76.4842 35.5841C76.6557 34.4694 76.9987 33.5263 77.3417 32.5831Z" fill="#042181"/>
<path d="M47.4168 77.4279L50.9323 78.9713C50.9323 78.9713 52.5615 79.743 53.0759 79.9145C53.3332 80.0002 53.7619 80.0002 54.1906 80.0002C56.1627 80.0002 57.9634 79.057 58.8208 77.4279C59.3353 76.3989 59.6783 75.37 59.6783 75.37L61.1359 71.7687C61.5647 70.5683 62.1649 69.4536 62.8508 68.4246C64.3085 66.281 66.1091 64.3946 68.3385 62.937C69.3674 62.251 70.4821 61.6508 71.6826 61.2221L75.1124 59.8501C75.1124 59.8501 77.0845 59.1642 77.6847 58.8212C79.2281 57.9638 79.9998 56.1631 79.9998 54.2767C79.9998 53.9337 79.9141 53.3335 79.8283 53.0763C79.6568 52.4761 78.8851 50.9327 78.8851 50.9327L77.3417 47.5029C76.913 46.5597 76.57 45.6165 76.3128 44.5876C76.227 44.3303 75.8841 44.2446 75.7126 44.4161C75.1981 45.0163 74.4264 45.5307 73.4832 45.8737L68.0813 48.0173L63.5368 49.818L63.3653 49.9037L57.8776 52.0474C55.1338 53.162 52.9902 55.3057 51.8755 58.0495L49.8176 63.4514L49.7319 63.6229L47.9312 68.1674L45.7876 73.5693C45.4446 74.5125 44.9302 75.2842 44.3299 75.7987C44.1585 75.9702 44.2442 76.3132 44.5014 76.3989C45.5304 76.6561 46.4736 76.9991 47.4168 77.4279Z" fill="#042181"/>
<path d="M2.57235 47.4169L1.02894 50.9324L0.0857449 53.076C0 53.5048 0 53.8477 0 54.1907C0 56.1629 1.02894 57.8778 2.57235 58.8209L4.63023 59.5927L8.23151 61.0503C9.43194 61.479 10.5466 62.0793 11.5756 62.7652C13.7192 64.2229 15.6056 66.0235 17.0632 68.2529C17.7492 69.2818 18.3494 70.3965 18.7781 71.5969L20.1501 75.0267L21.179 77.5991C21.179 77.5991 21.179 77.6848 21.2647 77.6848C22.2937 79.0567 23.9228 79.9999 25.7235 79.9999C26.0665 79.9999 26.3237 79.9999 26.6667 79.9142L29.0675 78.8853L32.4973 77.3418C33.4405 76.9131 34.3837 76.5701 35.4126 76.3129C35.6699 76.2272 35.7556 75.8842 35.5841 75.7127C34.9839 75.1982 34.4695 74.4265 34.1265 73.4833L31.9829 68.0814L30.1822 63.5369L30.0965 63.3654L27.9528 57.8778C26.8382 55.1339 24.6945 52.9903 21.9507 51.8756L16.463 49.732H16.3773L11.8328 47.9313L6.43087 45.7877C5.48767 45.4447 4.71597 44.9303 4.2015 44.3301C4.03001 44.1586 3.68703 44.2443 3.60129 44.5016C3.34405 45.5305 3.00107 46.4737 2.57235 47.4169Z" fill="#042181"/>
<path d="M27.0347 39.4136C26.5304 39.4136 26.048 39.3259 25.5875 39.1505C25.1343 38.9677 24.7323 38.7046 24.3814 38.3611C24.0306 38.0102 23.7529 37.5899 23.5482 37.1002C23.3508 36.6032 23.2522 36.0367 23.2522 35.4008C23.2522 34.8526 23.3545 34.3446 23.5592 33.8768C23.7638 33.409 24.0452 32.9997 24.4034 32.6489C24.7688 32.2907 25.1928 32.013 25.6752 31.8156C26.1576 31.6183 26.6802 31.5196 27.243 31.5196C27.9447 31.5196 28.5806 31.6731 29.1507 31.9801C29.7208 32.2798 30.1448 32.6927 30.4225 33.219L28.8328 34.436C28.6793 34.129 28.449 33.8841 28.142 33.7014C27.8351 33.5114 27.5098 33.4164 27.1663 33.4164C26.9104 33.4164 26.6765 33.4675 26.4646 33.5698C26.2526 33.6722 26.0662 33.8147 25.9054 33.9974C25.7519 34.1802 25.6313 34.3994 25.5436 34.6553C25.4632 34.9038 25.423 35.1779 25.423 35.4776C25.423 35.7845 25.4669 36.0623 25.5546 36.3108C25.6423 36.5593 25.7629 36.7749 25.9164 36.9577C26.0772 37.1331 26.2672 37.272 26.4865 37.3743C26.7058 37.4693 26.9506 37.5168 27.2211 37.5168C27.5646 37.5168 27.8935 37.4328 28.2078 37.2647C28.5221 37.0892 28.8072 36.8444 29.063 36.5301V38.6132C28.4783 39.1468 27.8022 39.4136 27.0347 39.4136ZM28.9534 36.7494H27.5171V35.2144H30.7186V39.3588H28.9534V36.7494ZM35.5455 35.3679C35.1435 35.3679 34.778 35.4118 34.4491 35.4995C34.1202 35.5872 33.8753 35.7334 33.7145 35.938V39.3588H31.6314V33.5918H33.5391V34.6882C33.7438 34.3008 33.9996 34.0047 34.3066 33.8001C34.6135 33.5881 34.9388 33.4821 35.2823 33.4821C35.3627 33.4821 35.4176 33.4821 35.4468 33.4821C35.4833 33.4821 35.5162 33.4858 35.5455 33.4931V35.3679ZM35.8103 37.6155C35.8103 37.2281 35.9163 36.8882 36.1283 36.5959C36.3402 36.2962 36.6326 36.0623 37.0054 35.8942C37.3855 35.7261 37.8167 35.642 38.2991 35.642C38.5257 35.642 38.7377 35.6603 38.935 35.6968C39.1397 35.7334 39.3151 35.7882 39.4613 35.8613V35.6859C39.4613 35.4154 39.3809 35.2144 39.2201 35.0829C39.0666 34.9513 38.8144 34.8855 38.4636 34.8855C38.142 34.8855 37.8386 34.9403 37.5536 35.05C37.2758 35.1523 36.9835 35.3058 36.6765 35.5105L36.0735 34.2167C36.4608 33.9682 36.8665 33.7855 37.2904 33.6685C37.7217 33.5443 38.1822 33.4821 38.6719 33.4821C39.5855 33.4821 40.2909 33.6905 40.7879 34.1071C41.2923 34.5164 41.5444 35.1267 41.5444 35.938V37.0564C41.5444 37.2537 41.5737 37.3926 41.6321 37.473C41.6906 37.5461 41.7929 37.5899 41.9391 37.6045V39.3588C41.771 39.3953 41.6102 39.4209 41.4567 39.4355C41.3105 39.4574 41.179 39.4684 41.062 39.4684C40.6892 39.4684 40.4042 39.4026 40.2068 39.2711C40.0168 39.1322 39.8925 38.9312 39.8341 38.668L39.7902 38.4597C39.5344 38.7886 39.2384 39.0408 38.9021 39.2162C38.5659 39.3843 38.2078 39.4684 37.8277 39.4684C37.4476 39.4684 37.1041 39.388 36.7971 39.2272C36.4901 39.0664 36.2489 38.8471 36.0735 38.5694C35.898 38.2843 35.8103 37.9664 35.8103 37.6155ZM39.1872 37.758C39.2676 37.6996 39.3334 37.6374 39.3845 37.5717C39.4357 37.4986 39.4613 37.4255 39.4613 37.3524V36.9248C39.3443 36.8809 39.2091 36.8444 39.0556 36.8152C38.9094 36.7859 38.7779 36.7713 38.6609 36.7713C38.4124 36.7713 38.2004 36.8334 38.025 36.9577C37.8569 37.0819 37.7729 37.2391 37.7729 37.4291C37.7729 37.5315 37.8021 37.6265 37.8606 37.7142C37.919 37.7946 37.9994 37.8604 38.1018 37.9115C38.2041 37.9554 38.321 37.9773 38.4526 37.9773C38.5769 37.9773 38.7048 37.959 38.8363 37.9225C38.9752 37.8786 39.0922 37.8238 39.1872 37.758ZM46.3645 39.4684C45.9332 39.4684 45.5605 39.3843 45.2462 39.2162C44.9319 39.0408 44.6834 38.7886 44.5006 38.4597V39.3588H42.6916V31.3551H44.7747V34.447C44.9428 34.1327 45.1804 33.8951 45.4874 33.7343C45.7944 33.5662 46.1562 33.4821 46.5728 33.4821C46.9236 33.4821 47.2489 33.5589 47.5486 33.7124C47.8483 33.8586 48.1077 34.0669 48.327 34.3373C48.5536 34.6078 48.729 34.9294 48.8533 35.3021C48.9775 35.6676 49.0397 36.066 49.0397 36.4972C49.0397 36.9211 48.9702 37.3158 48.8314 37.6813C48.6998 38.0394 48.5134 38.3537 48.2722 38.6242C48.0383 38.8946 47.7569 39.1029 47.428 39.2491C47.1064 39.3953 46.7519 39.4684 46.3645 39.4684ZM45.7615 37.7142C45.9296 37.7142 46.0831 37.6849 46.222 37.6265C46.3608 37.568 46.4814 37.4876 46.5838 37.3853C46.6861 37.2756 46.7628 37.1477 46.814 37.0015C46.8725 36.8554 46.9017 36.6909 46.9017 36.5082C46.9017 36.2743 46.8542 36.0623 46.7592 35.8723C46.6715 35.6749 46.5472 35.5214 46.3864 35.4118C46.2329 35.2948 46.0538 35.2364 45.8492 35.2364C45.703 35.2364 45.5605 35.2729 45.4216 35.346C45.2827 35.4191 45.1548 35.5214 45.0379 35.653C44.9282 35.7772 44.8405 35.9234 44.7747 36.0915V37.1221C44.8405 37.2172 44.91 37.3049 44.983 37.3853C45.0634 37.4584 45.1438 37.5205 45.2242 37.5717C45.3047 37.6155 45.3887 37.6521 45.4764 37.6813C45.5714 37.7032 45.6665 37.7142 45.7615 37.7142ZM49.543 39.9398C49.7111 39.9983 49.8646 40.0422 50.0035 40.0714C50.1496 40.108 50.2812 40.1262 50.3982 40.1262C50.5517 40.1262 50.6796 40.097 50.7819 40.0385C50.8842 39.9874 50.9646 39.9033 51.0231 39.7864C51.0816 39.6694 51.1181 39.5269 51.1327 39.3588L49.0386 33.5918H51.1766L52.273 37.2208L53.1611 33.5918H55.1017L53.1501 40.0495C53.0405 40.4223 52.8614 40.7475 52.6129 41.0253C52.3643 41.3103 52.0683 41.5296 51.7248 41.6831C51.3813 41.8439 51.0121 41.9243 50.6174 41.9243C50.4347 41.9243 50.252 41.906 50.0692 41.8695C49.8938 41.8403 49.7184 41.7891 49.543 41.716V39.9398ZM55.6903 39.3588V37.3414H57.3787V39.3588H55.6903Z" fill="#042181"/>
<path d="M23.5263 47.7202V41.9532H25.6094V47.7202H23.5263ZM23.5263 41.4708V39.7166H25.6094V41.4708H23.5263ZM32.4633 47.7202H30.3801V44.4749C30.3801 44.1899 30.3143 43.9852 30.1828 43.8609C30.0585 43.7294 29.9123 43.6636 29.7442 43.6636C29.6273 43.6636 29.503 43.7001 29.3715 43.7732C29.2399 43.839 29.1193 43.934 29.0096 44.0583C28.9 44.1825 28.8123 44.3251 28.7465 44.4859V47.7202H26.6634V41.9532H28.5382V42.8084C28.6771 42.5964 28.8525 42.421 29.0645 42.2821C29.2764 42.136 29.5213 42.0263 29.799 41.9532C30.0768 41.8801 30.3801 41.8436 30.709 41.8436C31.1037 41.8436 31.418 41.913 31.6519 42.0519C31.8858 42.1908 32.0613 42.3699 32.1782 42.5891C32.2952 42.8084 32.3719 43.0386 32.4084 43.2799C32.445 43.5137 32.4633 43.7294 32.4633 43.9267V47.7202ZM35.7863 47.8299C35.282 47.8299 34.785 47.7495 34.2953 47.5886C33.8128 47.4205 33.4035 47.1793 33.0673 46.865L33.78 45.5823C34.1381 45.8162 34.4816 45.9989 34.8106 46.1305C35.1468 46.262 35.4501 46.3278 35.7206 46.3278C35.8741 46.3278 35.9873 46.3095 36.0604 46.273C36.1335 46.2291 36.1701 46.1597 36.1701 46.0647C36.1701 45.9989 36.1445 45.9441 36.0933 45.9002C36.0422 45.8564 35.9581 45.8125 35.8412 45.7686C35.7315 45.7248 35.589 45.6773 35.4136 45.6261C34.9604 45.4653 34.5803 45.3155 34.2733 45.1766C33.9736 45.0377 33.7471 44.8696 33.5936 44.6723C33.4474 44.4676 33.3743 44.1972 33.3743 43.8609C33.3743 43.4662 33.473 43.119 33.6703 42.8194C33.8677 42.5124 34.1491 42.2712 34.5145 42.0958C34.8873 41.9203 35.3332 41.8326 35.8521 41.8326C36.2395 41.8326 36.6269 41.8948 37.0143 42.019C37.409 42.136 37.7891 42.3516 38.1545 42.6659L37.3651 43.9377C36.9997 43.7111 36.689 43.5503 36.4332 43.4553C36.1847 43.3603 35.9618 43.3127 35.7644 43.3127C35.6694 43.3127 35.5853 43.3237 35.5122 43.3456C35.4465 43.3676 35.3953 43.4005 35.3587 43.4443C35.3222 43.4882 35.3039 43.5466 35.3039 43.6197C35.3039 43.6928 35.3295 43.755 35.3807 43.8061C35.4318 43.85 35.5122 43.8938 35.6219 43.9377C35.7315 43.9742 35.8704 44.0181 36.0385 44.0693C36.5355 44.2154 36.9412 44.3653 37.2555 44.5188C37.5698 44.665 37.8 44.844 37.9462 45.056C38.0997 45.268 38.1765 45.5457 38.1765 45.8893C38.1765 46.4959 37.9608 46.971 37.5296 47.3146C37.1057 47.6581 36.5246 47.8299 35.7863 47.8299ZM38.9108 45.7467V41.9532H40.9939V45.2753C40.9939 45.5238 41.0487 45.7211 41.1584 45.8673C41.2753 46.0062 41.4325 46.0756 41.6298 46.0756C41.7395 46.0756 41.8491 46.061 41.9587 46.0318C42.0684 46.0025 42.178 45.9441 42.2876 45.8564C42.4046 45.7686 42.5179 45.6444 42.6275 45.4836V41.9532H44.7107V45.4178C44.7107 45.6152 44.7399 45.754 44.7984 45.8344C44.8568 45.9075 44.9592 45.9514 45.1054 45.966V47.7202C44.9226 47.7568 44.7582 47.7823 44.612 47.797C44.4658 47.8189 44.3379 47.8299 44.2283 47.8299C43.8774 47.8299 43.5997 47.7641 43.395 47.6325C43.1903 47.5009 43.0588 47.2999 43.0003 47.0295L42.9564 46.8212C42.686 47.1793 42.3607 47.4388 41.9807 47.5996C41.6079 47.7531 41.184 47.8299 40.7089 47.8299C40.1314 47.8299 39.6856 47.6508 39.3713 47.2926C39.0643 46.9345 38.9108 46.4192 38.9108 45.7467ZM49.8713 43.7294C49.4693 43.7294 49.1038 43.7732 48.7749 43.8609C48.446 43.9486 48.2011 44.0948 48.0403 44.2995V47.7202H45.9572V41.9532H47.8649V43.0496C48.0696 42.6622 48.3254 42.3662 48.6324 42.1615C48.9394 41.9496 49.2646 41.8436 49.6082 41.8436C49.6886 41.8436 49.7434 41.8436 49.7726 41.8436C49.8092 41.8436 49.8421 41.8472 49.8713 41.8546V43.7294Z" fill="#042181"/>
</g>
<defs>
<clipPath id="clip0_482_9961">
<rect width="80" height="80" fill="white"/>
</clipPath>
</defs>
</svg>
