<svg width="16" height="15" viewBox="0 0 16 15" fill="none" xmlns="http://www.w3.org/2000/svg">
<path d="M13.5 5.0197C14.0893 5.20904 14.5 5.7717 14.5 6.4177V9.27504C14.5 10.0324 13.9353 10.675 13.18 10.737C12.9533 10.755 12.7267 10.7717 12.5 10.785V12.8457L10.5 10.8457C9.59733 10.8457 8.704 10.809 7.82 10.737C7.62755 10.7215 7.44035 10.6666 7.27 10.5757M13.5 5.0197C13.397 4.98655 13.2905 4.9653 13.1827 4.95637C11.3973 4.80816 9.60271 4.80816 7.81733 4.95637C7.06333 5.01904 6.5 5.66104 6.5 6.4177V9.27504C6.5 9.83304 6.80667 10.3284 7.27 10.5757M13.5 5.0197V3.77037C13.5 2.6897 12.732 1.75304 11.66 1.6137C10.2805 1.4349 8.89099 1.34538 7.5 1.3457C6.09 1.3457 4.70133 1.43704 3.34 1.6137C2.268 1.75304 1.5 2.6897 1.5 3.77037V7.92104C1.5 9.0017 2.268 9.93837 3.34 10.0777C3.72467 10.1277 4.11133 10.171 4.5 10.207V13.3457L7.27 10.5757" stroke="#4F556A" stroke-width="1.5" stroke-linecap="round" stroke-linejoin="round"/>
</svg>
