<svg width="12" height="13" viewBox="0 0 12 13" fill="none" xmlns="http://www.w3.org/2000/svg">
<path d="M2.9375 1.25V2.5625M9.0625 1.25V2.5625M0.75 10.4375V3.875C0.75 3.5269 0.888281 3.19306 1.13442 2.94692C1.38056 2.70078 1.7144 2.5625 2.0625 2.5625H9.9375C10.2856 2.5625 10.6194 2.70078 10.8656 2.94692C11.1117 3.19306 11.25 3.5269 11.25 3.875V10.4375M0.75 10.4375C0.75 10.7856 0.888281 11.1194 1.13442 11.3656C1.38056 11.6117 1.7144 11.75 2.0625 11.75H9.9375C10.2856 11.75 10.6194 11.6117 10.8656 11.3656C11.1117 11.1194 11.25 10.7856 11.25 10.4375M0.75 10.4375V6.0625C0.75 5.7144 0.888281 5.38056 1.13442 5.13442C1.38056 4.88828 1.7144 4.75 2.0625 4.75H9.9375C10.2856 4.75 10.6194 4.88828 10.8656 5.13442C11.1117 5.38056 11.25 5.7144 11.25 6.0625V10.4375" stroke="#A3A5AE" stroke-linecap="round" stroke-linejoin="round"/>
</svg>
