<svg width="14" height="11" viewBox="0 0 14 11" fill="none" xmlns="http://www.w3.org/2000/svg">
<path d="M2.18586 4.20267C2.25119 4.19275 2.31827 4.1875 2.38652 4.1875H11.6102C11.6784 4.1875 11.7455 4.19275 11.8109 4.20267M2.18586 4.20267C1.84447 4.25554 1.53769 4.44087 1.33206 4.71846C1.12643 4.99605 1.03854 5.34352 1.08744 5.6855L1.58736 9.1855C1.63201 9.49825 1.78796 9.78439 2.02659 9.99142C2.26523 10.1984 2.57052 10.3124 2.88644 10.3125H11.1109C11.4268 10.3124 11.7321 10.1984 11.9707 9.99142C12.2093 9.78439 12.3653 9.49825 12.4099 9.1855L12.9099 5.6855C12.9588 5.34352 12.8709 4.99605 12.6652 4.71846C12.4596 4.44087 12.1528 4.25554 11.8114 4.20267M2.18644 4.20267V2C2.18644 1.652 2.32464 1.31825 2.57066 1.07213C2.81667 0.826004 3.15036 0.687655 3.49836 0.6875H5.76111C5.99309 0.687704 6.2155 0.780025 6.37944 0.944167L7.61727 2.18083C7.78121 2.34497 8.00362 2.4373 8.23561 2.4375H10.4984C10.8465 2.4375 11.1803 2.57578 11.4264 2.82192C11.6726 3.06806 11.8109 3.4019 11.8109 3.75V4.20267" stroke="#A3A5AE" stroke-linecap="round" stroke-linejoin="round"/>
</svg>
