<svg width="20" height="20" viewBox="0 0 20 20" fill="none" xmlns="http://www.w3.org/2000/svg">
<path d="M16.875 11.7917V15.3333C16.875 16.245 16.2192 17.03 15.315 17.15C13.5759 17.3808 11.8017 17.5 10 17.5C8.19838 17.5 6.42421 17.3808 4.68505 17.15C3.78088 17.03 3.12505 16.245 3.12505 15.3333V11.7917M16.875 11.7917C17.0729 11.6197 17.2312 11.407 17.3391 11.168C17.447 10.9291 17.5019 10.6697 17.5 10.4075V7.255C17.5 6.35417 16.86 5.57583 15.9692 5.4425C15.0253 5.30118 14.0766 5.19361 13.125 5.12M16.875 11.7917C16.7134 11.9292 16.525 12.0375 16.3142 12.1083C14.2777 12.784 12.1457 13.1273 10 13.125C7.79338 13.125 5.67088 12.7675 3.68588 12.1083C3.48026 12.0399 3.28982 11.9324 3.12505 11.7917M3.12505 11.7917C2.92717 11.6197 2.76885 11.407 2.66096 11.168C2.55308 10.9291 2.49818 10.6697 2.50005 10.4075V7.255C2.50005 6.35417 3.14005 5.57583 4.03088 5.4425C4.97479 5.30118 5.92345 5.19361 6.87505 5.12M13.125 5.12V4.375C13.125 3.87772 12.9275 3.40081 12.5759 3.04917C12.2242 2.69754 11.7473 2.5 11.25 2.5H8.75005C8.25277 2.5 7.77585 2.69754 7.42422 3.04917C7.07259 3.40081 6.87505 3.87772 6.87505 4.375V5.12M13.125 5.12C11.0448 4.95923 8.95528 4.95923 6.87505 5.12M10 10.625H10.0067V10.6317H10V10.625Z" stroke="#4F556A" stroke-width="1.5" stroke-linecap="round" stroke-linejoin="round"/>
</svg>
