<svg width="58" height="58" viewBox="0 0 58 58" fill="none" xmlns="http://www.w3.org/2000/svg">
<path d="M0 30C0 13.4315 13.4315 0 30 0H58V58H0V30Z" fill="#C0F8E8"/>
<path d="M26.845 31.8806L21.7793 36.9463C22.5739 37.5423 23.4679 37.9396 24.5604 37.9396H26.8449C27.2422 37.9396 27.6395 37.8402 28.0369 37.7409V40.4227C28.0369 40.7207 28.2355 40.9194 28.5335 40.9194C28.8315 40.9194 29.0302 40.7207 29.0302 40.4227V37.4429C29.0302 37.4429 29.0302 37.4429 29.0302 37.3436C29.4275 37.1449 29.7255 36.9463 30.0234 36.549L30.4207 36.1517C30.6194 35.953 30.6194 35.6551 30.4207 35.4564L26.845 31.8806Z" fill="#042181"/>
<path d="M23.0709 28.106C22.9716 28.0067 22.7729 27.9074 22.6736 28.0067C22.3756 28.0067 22.177 28.0067 21.6804 28.0067C21.4817 28.0067 21.3824 28.0067 21.2831 28.2054C21.0844 28.5034 20.8858 28.8014 20.6871 29.0993C20.6871 29.0993 20.6871 29.0993 20.5878 29.0993H17.608C17.31 29.0993 17.1113 29.298 17.1113 29.596C17.1113 29.894 17.31 30.0927 17.608 30.0927H20.2898C20.1905 30.4899 20.0911 30.8872 20.0911 31.2846V33.5691C20.0911 34.6617 20.4884 35.5556 21.0844 36.3502L26.1501 31.2845L23.0709 28.106Z" fill="#042181"/>
<path d="M29.7259 24.6296C29.8253 24.7289 29.9246 24.7289 30.1232 24.7289C30.2225 24.7289 30.3219 24.7289 30.4212 24.6296C30.6199 24.5303 30.7192 24.2323 30.6199 24.0336C30.3219 23.4377 30.2226 22.941 30.1232 22.4444C30.1232 22.2457 29.9246 22.0471 29.6266 22.0471H28.6333C28.4347 22.0471 28.3353 22.1464 28.236 22.2458C28.1367 22.3451 28.1367 22.5438 28.1367 22.6431C28.1367 22.9411 28.3353 23.239 28.534 23.4377L29.7259 24.6296Z" fill="#042181"/>
<path d="M35.686 31.9797H37.4738C37.7718 31.9797 37.9705 31.781 37.9705 31.483C37.9705 31.1851 37.7718 30.9864 37.4738 30.9864H34.6927L27.8391 24.1328C27.3425 23.6362 27.0445 22.9409 27.0445 22.2456V20.557C27.0445 20.2591 26.8459 20.0604 26.5479 20.0604C26.5479 20.0604 26.5479 20.0604 26.4486 20.0604C26.1506 19.5637 25.8526 19.0671 25.4553 18.6698C24.5614 17.6765 23.2701 17.0806 21.9788 17.0806C20.8862 17.0806 19.7936 17.4779 18.8997 18.1732C18.8004 18.2725 18.701 18.4712 18.701 18.5705C18.701 18.7691 18.8004 18.8685 18.8997 18.9678L21.9788 20.7557C21.8795 21.6496 21.3829 22.4442 20.4889 22.9409L17.8071 21.3517C17.6084 21.2524 17.4098 21.2524 17.3105 21.3517C17.1118 21.451 17.0125 21.5503 17.0125 21.749C16.9132 23.1396 17.4098 24.4308 18.4031 25.4241C19.297 26.4174 20.6876 27.0133 21.9788 27.0133C22.3761 27.0133 22.6742 27.0133 23.0715 26.8146L31.0177 34.7608L36.3813 40.1245C36.878 40.6212 37.5733 40.9191 38.2685 40.9191C39.6591 40.9191 40.851 39.7272 40.851 38.3366C40.851 37.6413 40.5531 36.946 40.0565 36.4494L35.686 31.9797Z" fill="#042181"/>
<path d="M35.1888 29.9934C35.2881 30.0927 35.3874 30.0927 35.5861 30.0927H35.7847C35.9834 29.9934 36.0827 29.7947 36.0827 29.596V28.3048C36.0827 28.1061 35.884 27.8081 35.6854 27.8081C34.9901 27.8081 34.4935 27.7088 33.8975 27.4108C33.6989 27.3115 33.4009 27.4108 33.3016 27.6095C33.2022 27.8081 33.2022 28.1061 33.4009 28.2054L35.1888 29.9934Z" fill="#042181"/>
<path d="M40.851 22.2458C40.0565 21.4512 38.1692 22.0471 37.1759 22.5438L35.686 21.0539C36.0833 19.9613 36.6793 18.0741 35.984 17.3787C35.7853 17.1801 35.4873 17.1801 35.2887 17.3787C35.09 17.5774 35.09 17.8754 35.2887 18.0741C35.4873 18.2727 35.2887 19.4647 34.792 20.7559L31.6135 21.2525C31.4148 21.2525 31.2162 21.4512 31.2162 21.7492C31.0176 24.5304 33.5008 27.0136 36.4806 27.0136C36.6793 27.0136 36.9772 26.8149 36.9772 26.6163L37.4739 23.4378C38.7651 22.9411 39.9571 22.7425 40.1557 22.9411C40.3544 23.1398 40.6524 23.1398 40.851 22.9411C41.0497 22.7424 41.0497 22.4445 40.851 22.2458Z" fill="#042181"/>
</svg>
