<svg width="16" height="14" viewBox="0 0 16 14" fill="none" xmlns="http://www.w3.org/2000/svg">
<path d="M4.422 6.3457C4.95934 6.3457 5.444 6.04837 5.776 5.6257C6.29351 4.96545 6.94314 4.42049 7.68334 4.0257C8.16534 3.7697 8.58334 3.38837 8.78534 2.88237C8.92721 2.52787 9.00007 2.14954 9 1.7677V1.3457C9 1.21309 9.05268 1.08592 9.14645 0.99215C9.24022 0.898381 9.36739 0.845703 9.5 0.845703C9.89783 0.845703 10.2794 1.00374 10.5607 1.28504C10.842 1.56635 11 1.94788 11 2.3457C11 3.1137 10.8267 3.84104 10.518 4.49104C10.3407 4.86304 10.5893 5.3457 11.0013 5.3457H13.0853C13.7693 5.3457 14.382 5.80837 14.4547 6.48904C14.4847 6.77037 14.5 7.0557 14.5 7.3457C14.5028 9.16993 13.8794 10.9399 12.734 12.3597C12.4753 12.681 12.076 12.8457 11.664 12.8457H8.98667C8.66467 12.8457 8.344 12.7937 8.038 12.6924L5.962 11.999C5.65607 11.8973 5.33574 11.8455 5.01334 11.8457H3.936M9.5 5.3457H11M3.936 11.8457C3.99134 11.9824 4.05134 12.1157 4.116 12.247C4.24734 12.5137 4.064 12.8457 3.76734 12.8457H3.162C2.56934 12.8457 2.02 12.5004 1.84734 11.9337C1.61643 11.1759 1.49938 10.3879 1.5 9.5957C1.5 8.56037 1.69667 7.5717 2.054 6.6637C2.258 6.1477 2.778 5.8457 3.33334 5.8457H4.03534C4.35 5.8457 4.532 6.21637 4.36867 6.4857C3.79926 7.423 3.49895 8.499 3.50067 9.5957C3.50067 10.3917 3.65534 11.151 3.93667 11.8457H3.936Z" stroke="#4F556A" stroke-width="1.5" stroke-linecap="round" stroke-linejoin="round"/>
</svg>
