<svg width="58" height="58" viewBox="0 0 58 58" fill="none" xmlns="http://www.w3.org/2000/svg">
<path d="M0 30C0 13.4315 13.4315 0 30 0H58V58H0V30Z" fill="#C0F8E8"/>
<path d="M21.2188 25.5312C19.6676 25.5312 18.4062 24.2699 18.4062 22.7188C18.4062 21.1676 19.6676 19.9062 21.2188 19.9062C22.7699 19.9062 24.0312 21.1676 24.0312 22.7188C24.0312 24.2699 22.7699 25.5312 21.2188 25.5312Z" fill="#042181"/>
<path d="M36.7812 25.5312C35.2301 25.5312 33.9688 24.2699 33.9688 22.7188C33.9688 21.1676 35.2301 19.9062 36.7812 19.9062C38.3324 19.9062 39.5938 21.1676 39.5938 22.7188C39.5938 24.2699 38.3324 25.5312 36.7812 25.5312Z" fill="#042181"/>
<path d="M29 24.0312C27.0616 24.0312 25.4844 22.454 25.4844 20.5156C25.4844 18.5772 27.0616 17 29 17C30.9384 17 32.5156 18.5772 32.5156 20.5156C32.5156 22.454 30.9384 24.0312 29 24.0312Z" fill="#042181"/>
<path d="M29.7031 24.1023V28.9531C29.7031 29.3417 29.3886 29.6562 29 29.6562C28.6114 29.6562 28.2969 29.3417 28.2969 28.9531V24.1023C25.918 24.4472 24.0781 26.4802 24.0781 28.9531V33.1719C24.0781 33.5605 24.3926 33.875 24.7812 33.875H26.3564L26.8934 40.3559C26.9236 40.7198 27.2285 41 27.5938 41H30.4062C30.7715 41 31.0764 40.7198 31.1066 40.3559L31.6436 33.875H33.2188C33.6074 33.875 33.9219 33.5605 33.9219 33.1719V28.9531C33.9219 26.4802 32.082 24.4472 29.7031 24.1023Z" fill="#042181"/>
<path d="M22.625 33.2656V29.0469C22.625 27.9929 22.9086 27.0135 23.3661 26.1387C22.7348 25.7618 22.006 25.5312 21.2187 25.5312C18.8924 25.5312 17 27.4236 17 29.75V33.2656C17 33.6543 17.3145 33.9688 17.7031 33.9688H18.4729L19.1128 40.3669C19.1485 40.726 19.4513 41 19.8125 41H22.625C22.9862 41 23.289 40.726 23.3247 40.3669L23.8444 35.1711C23.1265 34.8343 22.625 34.1097 22.625 33.2656Z" fill="#042181"/>
<path d="M41.0007 29.75C41.0007 27.4236 39.1083 25.5312 36.7819 25.5312C35.9947 25.5312 35.2659 25.7618 34.6345 26.1387C35.0921 27.0135 35.3757 27.9929 35.3757 29.0469V33.2656C35.3757 34.1097 34.8741 34.8343 34.1562 35.1711L34.676 40.3669C34.7117 40.726 35.0145 41 35.3757 41H38.1882C38.5493 41 38.8521 40.726 38.8879 40.3669L39.5278 33.9688H40.2975C40.6862 33.9688 41.0007 33.6543 41.0007 33.2656V29.75Z" fill="#042181"/>
</svg>
