<svg width="40" height="40" viewBox="0 0 40 40" fill="none" xmlns="http://www.w3.org/2000/svg">
<g clip-path="url(#clip0_456_6020)">
<path d="M9.94516 21.1328H38.1641C38.8544 21.1328 39.4141 21.6925 39.4141 22.3828C39.4141 23.0731 38.8544 23.6328 38.1641 23.6328H1.83594C1.14562 23.6328 0.585938 23.0731 0.585938 22.3828C0.585938 21.6925 1.14562 21.1328 1.83594 21.1328H7.46062" stroke="#042181" stroke-width="1.2" stroke-miterlimit="10" stroke-linecap="round" stroke-linejoin="round"/>
<path d="M29.1952 6.83569C27.538 5.71405 25.6448 4.91483 23.6055 4.52812" stroke="#042181" stroke-width="1.2" stroke-miterlimit="10" stroke-linecap="round" stroke-linejoin="round"/>
<path d="M35.8037 21.1328V19.2781C35.8037 14.9977 34.0124 11.1356 31.1387 8.40063" stroke="#042181" stroke-width="1.2" stroke-miterlimit="10" stroke-linecap="round" stroke-linejoin="round"/>
<path d="M16.3957 4.52813C9.44961 5.84531 4.19727 11.9484 4.19727 19.2781V21.1328" stroke="#042181" stroke-width="1.2" stroke-miterlimit="10" stroke-linecap="round" stroke-linejoin="round"/>
<path d="M23.6039 9.00549V4.52815V4.2594C23.6039 3.82737 23.2532 3.47659 22.8211 3.47659H17.1773C16.7453 3.47659 16.3945 3.82737 16.3945 4.2594V4.52815V9.00549" stroke="#3AC19B" stroke-width="1.2" stroke-miterlimit="10" stroke-linecap="round" stroke-linejoin="round"/>
<path d="M16.3945 16.5914V21.1328H23.6039V16.5914" stroke="#3AC19B" stroke-width="1.2" stroke-miterlimit="10" stroke-linecap="round" stroke-linejoin="round"/>
<path d="M26.2327 13.7983C26.2327 16.6881 23.89 19.0309 21.0001 19.0309C18.1102 19.0309 15.7676 16.6881 15.7676 13.7983C15.7676 10.9085 18.1102 8.56573 21.0001 8.56573C23.89 8.56573 26.2327 10.9085 26.2327 13.7983Z" fill="#C0F8E8"/>
<path d="M25.2327 12.7983C25.2327 15.6881 22.89 18.0309 20.0001 18.0309C17.1102 18.0309 14.7676 15.6881 14.7676 12.7983C14.7676 9.90846 17.1102 7.56573 20.0001 7.56573C22.89 7.56573 25.2327 9.90846 25.2327 12.7983Z" stroke="#042181" stroke-width="1.2" stroke-miterlimit="10" stroke-linecap="round" stroke-linejoin="round"/>
<path d="M27.4896 36.5234H25.7082C24.5369 36.5234 23.4571 36.0009 22.7456 35.0898C22.6648 34.9862 22.4352 34.7455 22.0491 34.7455H17.9509C17.5648 34.7455 17.3351 34.9862 17.2543 35.0897C16.5429 36.0009 15.4631 36.5234 14.2918 36.5234H8.44477C6.52375 36.5234 4.96094 34.9578 4.96094 33.0334V26.5866C4.96094 24.9579 6.28406 23.6328 7.91039 23.6328H32.0895C33.7159 23.6328 35.0391 24.9579 35.0391 26.5866V33.0334C35.0391 34.9578 33.4763 36.5234 31.5552 36.5234H30" stroke="#042181" stroke-width="1.2" stroke-miterlimit="10" stroke-linecap="round" stroke-linejoin="round"/>
<path d="M25.7084 34.1678C25.2755 34.1678 24.8595 33.9775 24.5925 33.636C24.0009 32.8789 23.0808 32.3915 22.0493 32.3915H17.951C16.9195 32.3915 15.9994 32.8789 15.4077 33.636C15.1408 33.9775 14.7247 34.1678 14.2919 34.1678H8.44484C7.81516 34.1678 7.30469 33.6561 7.30469 33.0248V26.5839C7.30469 26.2485 7.57594 25.9765 7.91047 25.9765H32.0898C32.4243 25.9765 32.6955 26.2485 32.6955 26.5839V33.0248C32.6955 33.6561 32.1851 34.1678 31.5555 34.1678H25.7084Z" stroke="#3AC19B" stroke-width="1.2" stroke-miterlimit="10" stroke-linecap="round" stroke-linejoin="round"/>
</g>
<defs>
<clipPath id="clip0_456_6020">
<rect width="40" height="40" fill="white"/>
</clipPath>
</defs>
</svg>
