<svg width="22" height="20" viewBox="0 0 22 20" fill="none" xmlns="http://www.w3.org/2000/svg">
<path d="M13.999 17.128C14.852 17.3757 15.7358 17.5009 16.624 17.5C18.0525 17.5021 19.4623 17.1764 20.745 16.548C20.783 15.6517 20.5277 14.7675 20.0178 14.0293C19.508 13.2912 18.7714 12.7394 17.9198 12.4575C17.0681 12.1757 16.1477 12.1791 15.2982 12.4674C14.4487 12.7557 13.7163 13.313 13.212 14.055M13.999 17.128V17.125C13.999 16.012 13.714 14.965 13.213 14.055M13.999 17.128V17.234C12.0745 18.3931 9.86966 19.0038 7.62305 19C5.29205 19 3.11105 18.355 1.24905 17.234L1.24805 17.125C1.24728 15.7095 1.71766 14.3339 2.58503 13.2153C3.4524 12.0966 4.66742 11.2984 6.03854 10.9466C7.40965 10.5948 8.85887 10.7093 10.1577 11.2721C11.4566 11.8349 12.5311 12.814 13.212 14.055M10.999 4.375C10.999 5.27011 10.6435 6.12855 10.0105 6.76149C9.3776 7.39442 8.51915 7.75 7.62405 7.75C6.72894 7.75 5.8705 7.39442 5.23756 6.76149C4.60463 6.12855 4.24905 5.27011 4.24905 4.375C4.24905 3.47989 4.60463 2.62145 5.23756 1.98851C5.8705 1.35558 6.72894 1 7.62405 1C8.51915 1 9.3776 1.35558 10.0105 1.98851C10.6435 2.62145 10.999 3.47989 10.999 4.375V4.375ZM19.249 6.625C19.249 7.32119 18.9725 7.98887 18.4802 8.48116C17.9879 8.97344 17.3202 9.25 16.624 9.25C15.9279 9.25 15.2602 8.97344 14.7679 8.48116C14.2756 7.98887 13.999 7.32119 13.999 6.625C13.999 5.92881 14.2756 5.26113 14.7679 4.76884C15.2602 4.27656 15.9279 4 16.624 4C17.3202 4 17.9879 4.27656 18.4802 4.76884C18.9725 5.26113 19.249 5.92881 19.249 6.625V6.625Z" stroke="#4F556A" stroke-width="1.5" stroke-linecap="round" stroke-linejoin="round"/>
</svg>
