<svg width="58" height="58" viewBox="0 0 58 58" fill="none" xmlns="http://www.w3.org/2000/svg">
<path d="M0 30C0 13.4315 13.4315 0 30 0H58V58H0V30Z" fill="#C0F8E8"/>
<g clip-path="url(#clip0_455_13429)">
<path d="M27.4475 37.3925H21.125C20.9261 37.3925 20.7353 37.3135 20.5947 37.1728C20.454 37.0322 20.375 36.8414 20.375 36.6425C20.375 36.4436 20.454 36.2528 20.5947 36.1122C20.7353 35.9715 20.9261 35.8925 21.125 35.8925H26.93C26.8089 35.3534 26.7485 34.8025 26.75 34.25C26.7488 33.6222 26.8295 32.9969 26.99 32.39H21.125C20.9261 32.39 20.7353 32.311 20.5947 32.1703C20.454 32.0297 20.375 31.8389 20.375 31.64C20.375 31.4411 20.454 31.2503 20.5947 31.1097C20.7353 30.969 20.9261 30.89 21.125 30.89H27.5525C28.3387 29.327 29.6467 28.088 31.25 27.3875H21.125C20.9261 27.3875 20.7353 27.3085 20.5947 27.1678C20.454 27.0272 20.375 26.8364 20.375 26.6375C20.375 26.4386 20.454 26.2478 20.5947 26.1072C20.7353 25.9665 20.9261 25.8875 21.125 25.8875H31.625C31.8239 25.8875 32.0147 25.9665 32.1553 26.1072C32.296 26.2478 32.375 26.4386 32.375 26.6375C32.375 26.7721 32.3387 26.9042 32.27 27.02C32.9143 26.8386 33.5807 26.7477 34.25 26.75C34.505 26.75 34.7525 26.75 35 26.7875V20C35 19.4033 34.7629 18.831 34.341 18.409C33.919 17.9871 33.3467 17.75 32.75 17.75H20C19.4033 17.75 18.831 17.9871 18.409 18.409C17.9871 18.831 17.75 19.4033 17.75 20V38C17.75 38.5967 17.9871 39.169 18.409 39.591C18.831 40.0129 19.4033 40.25 20 40.25H29.75C28.7577 39.5029 27.9665 38.521 27.4475 37.3925V37.3925ZM21.125 20.8925H31.625C31.8239 20.8925 32.0147 20.9715 32.1553 21.1122C32.296 21.2528 32.375 21.4436 32.375 21.6425C32.375 21.8414 32.296 22.0322 32.1553 22.1728C32.0147 22.3135 31.8239 22.3925 31.625 22.3925H21.125C20.9261 22.3925 20.7353 22.3135 20.5947 22.1728C20.454 22.0322 20.375 21.8414 20.375 21.6425C20.375 21.4436 20.454 21.2528 20.5947 21.1122C20.7353 20.9715 20.9261 20.8925 21.125 20.8925V20.8925Z" fill="#042181"/>
<path d="M34.25 28.25C33.0633 28.25 31.9033 28.6019 30.9166 29.2612C29.9299 29.9205 29.1609 30.8575 28.7067 31.9539C28.2526 33.0503 28.1338 34.2567 28.3653 35.4205C28.5968 36.5844 29.1682 37.6535 30.0074 38.4926C30.8465 39.3318 31.9156 39.9032 33.0795 40.1347C34.2433 40.3662 35.4497 40.2474 36.5461 39.7933C37.6425 39.3392 38.5795 38.5701 39.2388 37.5834C39.8981 36.5967 40.25 35.4367 40.25 34.25C40.25 32.6587 39.6179 31.1326 38.4926 30.0074C37.3674 28.8821 35.8413 28.25 34.25 28.25V28.25ZM36.62 33.6875L34.025 35.9375C33.8902 36.0564 33.7172 36.1229 33.5375 36.125C33.3552 36.1247 33.1792 36.0581 33.0425 35.9375L31.88 34.9325C31.8056 34.8675 31.7448 34.7885 31.701 34.7C31.6572 34.6115 31.6312 34.5152 31.6246 34.4166C31.618 34.3181 31.6308 34.2192 31.6624 34.1256C31.694 34.032 31.7437 33.9456 31.8088 33.8713C31.8738 33.7969 31.9528 33.7361 32.0413 33.6922C32.1298 33.6484 32.2261 33.6224 32.3246 33.6158C32.4232 33.6092 32.5221 33.6221 32.6156 33.6537C32.7092 33.6853 32.7956 33.735 32.87 33.8L33.5375 34.3775L35.63 32.5625C35.703 32.4924 35.7895 32.4377 35.8842 32.4019C35.9789 32.3661 36.0798 32.3498 36.181 32.3541C36.2821 32.3583 36.3814 32.383 36.4728 32.4266C36.5641 32.4703 36.6457 32.5319 36.7126 32.6079C36.7795 32.6839 36.8303 32.7727 36.8619 32.8689C36.8936 32.965 36.9055 33.0666 36.8968 33.1675C36.8882 33.2684 36.8592 33.3664 36.8116 33.4558C36.764 33.5452 36.6989 33.624 36.62 33.6875Z" fill="#042181"/>
</g>
<defs>
<clipPath id="clip0_455_13429">
<rect width="24" height="24" fill="white" transform="translate(17 17)"/>
</clipPath>
</defs>
</svg>
